<svg width="171" height="154" viewBox="0 0 171 154" fill="none" xmlns="http://www.w3.org/2000/svg">
<circle cx="140.5" cy="105" r="8" fill="#FEB273"/>
<path fill-rule="evenodd" clip-rule="evenodd" d="M144.255 104.238L144.256 105.748C144.245 105.891 144.231 106.035 144.215 106.178C144.187 106.418 143.992 106.612 143.747 106.639C142.98 106.725 142.187 106.725 141.421 106.639C141.176 106.612 140.981 106.418 140.953 106.178C140.861 105.395 140.861 104.605 140.953 103.822C140.981 103.582 141.176 103.388 141.421 103.361C142.187 103.275 142.98 103.275 143.747 103.361C143.992 103.388 144.187 103.582 144.215 103.822C144.231 103.96 144.244 104.099 144.255 104.238ZM142.584 104.375C142.239 104.375 141.959 104.655 141.959 105C141.959 105.345 142.239 105.625 142.584 105.625C142.929 105.625 143.209 105.345 143.209 105C143.209 104.655 142.929 104.375 142.584 104.375Z" fill="white"/>
<path d="M144.002 102.517C144.067 102.629 143.945 102.754 143.816 102.74C143.004 102.649 142.164 102.649 141.351 102.74C140.822 102.799 140.395 103.216 140.332 103.749C140.235 104.58 140.235 105.42 140.332 106.251C140.395 106.784 140.822 107.201 141.351 107.26C142.164 107.351 143.004 107.351 143.816 107.26C143.946 107.246 144.069 107.372 144.003 107.485C143.679 108.044 143.1 108.435 142.428 108.506L142.157 108.534C140.777 108.679 139.386 108.67 138.008 108.506L137.828 108.484C137.086 108.396 136.497 107.816 136.399 107.074C136.215 105.698 136.215 104.302 136.399 102.926C136.497 102.184 137.086 101.604 137.828 101.516L138.008 101.494C139.386 101.33 140.777 101.321 142.157 101.466L142.428 101.494C143.101 101.565 143.678 101.956 144.002 102.517Z" fill="white"/>
<circle cx="9.5" cy="111" r="9" fill="#0BA5EC"/>
<path fill-rule="evenodd" clip-rule="evenodd" d="M5.02051 111C5.02051 109.677 6.09316 108.604 7.41634 108.604C8.32491 108.604 9.11478 109.11 9.52084 109.854H13.2497C13.6524 109.854 13.9788 110.181 13.9788 110.583V111.625C13.9788 111.798 13.8389 111.938 13.6663 111.938H12.7288V112.667C12.7288 112.839 12.5889 112.979 12.4163 112.979H11.3747C11.2021 112.979 11.0622 112.839 11.0622 112.667V111.938H9.62171C9.25692 112.795 8.4072 113.396 7.41634 113.396C6.09316 113.396 5.02051 112.323 5.02051 111ZM7.41634 110.167C6.9561 110.167 6.58301 110.54 6.58301 111C6.58301 111.46 6.9561 111.833 7.41634 111.833C7.87658 111.833 8.24967 111.46 8.24967 111C8.24967 110.54 7.87658 110.167 7.41634 110.167Z" fill="white"/>
<circle cx="65.5" cy="13" r="10" fill="#7CD4FD"/>
<path fill-rule="evenodd" clip-rule="evenodd" d="M68.4929 9.94422L65.4995 9.87492L62.5062 9.94422C61.9013 9.95651 61.3885 10.3926 61.2791 10.9876C61.0346 12.3181 61.0346 13.6819 61.2791 15.0124C61.3885 15.6075 61.9013 16.0435 62.5062 16.0558L65.4995 16.1251L68.4929 16.0558C69.0978 16.0435 69.6106 15.6075 69.72 15.0124C69.9645 13.6819 69.9645 12.3181 69.72 10.9876C69.6106 10.3926 69.0978 9.95651 68.4929 9.94422ZM69.2495 12.5833C69.2495 12.8135 69.063 13 68.8329 13H62.1662C61.9361 13 61.7495 12.8135 61.7495 12.5833C61.7495 12.3532 61.9361 12.1667 62.1662 12.1667H68.8329C69.063 12.1667 69.2495 12.3532 69.2495 12.5833Z" fill="white"/>
<path d="M102.5 68.8535C102.5 93.2778 74.3501 122 49.7479 122C25.1457 122 9.5 100.648 9.5 76.2241C9.5 51.7998 29.444 32 54.0462 32C78.6484 32 102.5 44.4291 102.5 68.8535Z" fill="#AEB5FF" fill-opacity="0.1"/>
<path d="M100.948 28.2787C96.3661 25.5198 90.6345 25.5198 86.0527 28.2787L82.7398 30.2736C74.7014 35.1139 65.6771 38.0841 56.3352 38.9643L54.248 39.1609C50.1279 39.5491 46.9795 43.0081 46.9795 47.1464V57.6947C46.9795 75.5242 54.218 92.5897 67.0369 104.982L87.9255 125.175C91.0345 128.181 95.9662 128.181 99.0751 125.175L119.964 104.982C132.783 92.5897 140.021 75.5242 140.021 57.6946V47.1464C140.021 43.0081 136.873 39.5491 132.753 39.1609L130.665 38.9643C121.324 38.0841 112.299 35.1139 104.261 30.2736L100.948 28.2787Z" fill="#6F73A0"/>
</svg>
